<mxfile host="Electron" agent="Mozilla/5.0 (Macintosh; Intel Mac OS X 10_15_7) AppleWebKit/537.36 (KHTML, like Gecko) draw.io/24.7.17 Chrome/128.0.6613.36 Electron/32.0.1 Safari/537.36" version="24.7.17">
  <diagram name="第 1 页" id="XgbPbm7prH1P0A-Q5uSz">
    <mxGraphModel dx="954" dy="727" grid="1" gridSize="10" guides="1" tooltips="1" connect="1" arrows="1" fold="1" page="1" pageScale="1" pageWidth="827" pageHeight="1169" math="0" shadow="0">
      <root>
        <mxCell id="0" />
        <mxCell id="1" parent="0" />
        <mxCell id="1V6wT3GAd-PUBo_Er2DN-1" value="字符串：" style="text;html=1;align=center;verticalAlign=middle;resizable=0;points=[];autosize=1;strokeColor=none;fillColor=none;" vertex="1" parent="1">
          <mxGeometry x="105" y="210" width="70" height="30" as="geometry" />
        </mxCell>
        <mxCell id="1V6wT3GAd-PUBo_Er2DN-2" value="下标：" style="text;html=1;align=center;verticalAlign=middle;resizable=0;points=[];autosize=1;strokeColor=none;fillColor=none;" vertex="1" parent="1">
          <mxGeometry x="110" y="170" width="60" height="30" as="geometry" />
        </mxCell>
        <mxCell id="1V6wT3GAd-PUBo_Er2DN-4" value="字符串最后出现的位置：" style="text;html=1;align=center;verticalAlign=middle;resizable=0;points=[];autosize=1;strokeColor=none;fillColor=none;" vertex="1" parent="1">
          <mxGeometry x="20" y="250" width="160" height="30" as="geometry" />
        </mxCell>
        <mxCell id="1V6wT3GAd-PUBo_Er2DN-6" value="a" style="text;html=1;align=center;verticalAlign=middle;resizable=0;points=[];autosize=1;strokeColor=none;fillColor=none;" vertex="1" parent="1">
          <mxGeometry x="185" y="210" width="30" height="30" as="geometry" />
        </mxCell>
        <mxCell id="1V6wT3GAd-PUBo_Er2DN-7" value="a" style="text;html=1;align=center;verticalAlign=middle;resizable=0;points=[];autosize=1;strokeColor=none;fillColor=none;" vertex="1" parent="1">
          <mxGeometry x="240" y="210" width="30" height="30" as="geometry" />
        </mxCell>
        <mxCell id="1V6wT3GAd-PUBo_Er2DN-8" value="b" style="text;html=1;align=center;verticalAlign=middle;resizable=0;points=[];autosize=1;strokeColor=none;fillColor=none;" vertex="1" parent="1">
          <mxGeometry x="210" y="210" width="30" height="30" as="geometry" />
        </mxCell>
        <mxCell id="1V6wT3GAd-PUBo_Er2DN-9" value="c" style="text;html=1;align=center;verticalAlign=middle;resizable=0;points=[];autosize=1;strokeColor=none;fillColor=none;" vertex="1" parent="1">
          <mxGeometry x="300" y="210" width="30" height="30" as="geometry" />
        </mxCell>
        <mxCell id="1V6wT3GAd-PUBo_Er2DN-10" value="b" style="text;html=1;align=center;verticalAlign=middle;resizable=0;points=[];autosize=1;strokeColor=none;fillColor=none;" vertex="1" parent="1">
          <mxGeometry x="270" y="210" width="30" height="30" as="geometry" />
        </mxCell>
        <mxCell id="1V6wT3GAd-PUBo_Er2DN-11" value="b" style="text;html=1;align=center;verticalAlign=middle;resizable=0;points=[];autosize=1;strokeColor=none;fillColor=none;" vertex="1" parent="1">
          <mxGeometry x="325" y="210" width="30" height="30" as="geometry" />
        </mxCell>
        <mxCell id="1V6wT3GAd-PUBo_Er2DN-12" value="c" style="text;html=1;align=center;verticalAlign=middle;resizable=0;points=[];autosize=1;strokeColor=none;fillColor=none;" vertex="1" parent="1">
          <mxGeometry x="385" y="210" width="30" height="30" as="geometry" />
        </mxCell>
        <mxCell id="1V6wT3GAd-PUBo_Er2DN-13" value="a" style="text;html=1;align=center;verticalAlign=middle;resizable=0;points=[];autosize=1;strokeColor=none;fillColor=none;" vertex="1" parent="1">
          <mxGeometry x="355" y="210" width="30" height="30" as="geometry" />
        </mxCell>
        <mxCell id="1V6wT3GAd-PUBo_Er2DN-14" value="d" style="text;html=1;align=center;verticalAlign=middle;resizable=0;points=[];autosize=1;strokeColor=none;fillColor=none;" vertex="1" parent="1">
          <mxGeometry x="445" y="210" width="30" height="30" as="geometry" />
        </mxCell>
        <mxCell id="1V6wT3GAd-PUBo_Er2DN-15" value="a" style="text;html=1;align=center;verticalAlign=middle;resizable=0;points=[];autosize=1;strokeColor=none;fillColor=none;" vertex="1" parent="1">
          <mxGeometry x="415" y="210" width="30" height="30" as="geometry" />
        </mxCell>
        <mxCell id="1V6wT3GAd-PUBo_Er2DN-16" value="f" style="text;html=1;align=center;verticalAlign=middle;resizable=0;points=[];autosize=1;strokeColor=none;fillColor=none;" vertex="1" parent="1">
          <mxGeometry x="500" y="210" width="30" height="30" as="geometry" />
        </mxCell>
        <mxCell id="1V6wT3GAd-PUBo_Er2DN-17" value="e" style="text;html=1;align=center;verticalAlign=middle;resizable=0;points=[];autosize=1;strokeColor=none;fillColor=none;" vertex="1" parent="1">
          <mxGeometry x="470" y="210" width="30" height="30" as="geometry" />
        </mxCell>
        <mxCell id="1V6wT3GAd-PUBo_Er2DN-18" value="d" style="text;html=1;align=center;verticalAlign=middle;resizable=0;points=[];autosize=1;strokeColor=none;fillColor=none;" vertex="1" parent="1">
          <mxGeometry x="590" y="210" width="30" height="30" as="geometry" />
        </mxCell>
        <mxCell id="1V6wT3GAd-PUBo_Er2DN-19" value="g" style="text;html=1;align=center;verticalAlign=middle;resizable=0;points=[];autosize=1;strokeColor=none;fillColor=none;" vertex="1" parent="1">
          <mxGeometry x="560" y="210" width="30" height="30" as="geometry" />
        </mxCell>
        <mxCell id="1V6wT3GAd-PUBo_Er2DN-20" value="e" style="text;html=1;align=center;verticalAlign=middle;resizable=0;points=[];autosize=1;strokeColor=none;fillColor=none;" vertex="1" parent="1">
          <mxGeometry x="530" y="210" width="30" height="30" as="geometry" />
        </mxCell>
        <mxCell id="1V6wT3GAd-PUBo_Er2DN-21" value="h" style="text;html=1;align=center;verticalAlign=middle;resizable=0;points=[];autosize=1;strokeColor=none;fillColor=none;" vertex="1" parent="1">
          <mxGeometry x="650" y="210" width="30" height="30" as="geometry" />
        </mxCell>
        <mxCell id="1V6wT3GAd-PUBo_Er2DN-22" value="e" style="text;html=1;align=center;verticalAlign=middle;resizable=0;points=[];autosize=1;strokeColor=none;fillColor=none;" vertex="1" parent="1">
          <mxGeometry x="620" y="210" width="30" height="30" as="geometry" />
        </mxCell>
        <mxCell id="1V6wT3GAd-PUBo_Er2DN-23" value="j" style="text;html=1;align=center;verticalAlign=middle;resizable=0;points=[];autosize=1;strokeColor=none;fillColor=none;" vertex="1" parent="1">
          <mxGeometry x="710" y="210" width="30" height="30" as="geometry" />
        </mxCell>
        <mxCell id="1V6wT3GAd-PUBo_Er2DN-24" value="i" style="text;html=1;align=center;verticalAlign=middle;resizable=0;points=[];autosize=1;strokeColor=none;fillColor=none;" vertex="1" parent="1">
          <mxGeometry x="680" y="210" width="30" height="30" as="geometry" />
        </mxCell>
        <mxCell id="1V6wT3GAd-PUBo_Er2DN-25" value="k" style="text;html=1;align=center;verticalAlign=middle;resizable=0;points=[];autosize=1;strokeColor=none;fillColor=none;" vertex="1" parent="1">
          <mxGeometry x="770" y="210" width="30" height="30" as="geometry" />
        </mxCell>
        <mxCell id="1V6wT3GAd-PUBo_Er2DN-26" value="h" style="text;html=1;align=center;verticalAlign=middle;resizable=0;points=[];autosize=1;strokeColor=none;fillColor=none;" vertex="1" parent="1">
          <mxGeometry x="740" y="210" width="30" height="30" as="geometry" />
        </mxCell>
        <mxCell id="1V6wT3GAd-PUBo_Er2DN-27" value="i" style="text;html=1;align=center;verticalAlign=middle;resizable=0;points=[];autosize=1;strokeColor=none;fillColor=none;" vertex="1" parent="1">
          <mxGeometry x="820" y="210" width="30" height="30" as="geometry" />
        </mxCell>
        <mxCell id="1V6wT3GAd-PUBo_Er2DN-28" value="l" style="text;html=1;align=center;verticalAlign=middle;resizable=0;points=[];autosize=1;strokeColor=none;fillColor=none;" vertex="1" parent="1">
          <mxGeometry x="797" y="210" width="30" height="30" as="geometry" />
        </mxCell>
        <mxCell id="1V6wT3GAd-PUBo_Er2DN-33" value="j" style="text;html=1;align=center;verticalAlign=middle;resizable=0;points=[];autosize=1;strokeColor=none;fillColor=none;" vertex="1" parent="1">
          <mxGeometry x="850" y="210" width="30" height="30" as="geometry" />
        </mxCell>
        <mxCell id="1V6wT3GAd-PUBo_Er2DN-59" value="0" style="text;html=1;align=center;verticalAlign=middle;resizable=0;points=[];autosize=1;strokeColor=none;fillColor=none;" vertex="1" parent="1">
          <mxGeometry x="185" y="170" width="30" height="30" as="geometry" />
        </mxCell>
        <mxCell id="1V6wT3GAd-PUBo_Er2DN-60" value="2" style="text;html=1;align=center;verticalAlign=middle;resizable=0;points=[];autosize=1;strokeColor=none;fillColor=none;" vertex="1" parent="1">
          <mxGeometry x="240" y="170" width="30" height="30" as="geometry" />
        </mxCell>
        <mxCell id="1V6wT3GAd-PUBo_Er2DN-61" value="1" style="text;html=1;align=center;verticalAlign=middle;resizable=0;points=[];autosize=1;strokeColor=none;fillColor=none;" vertex="1" parent="1">
          <mxGeometry x="210" y="170" width="30" height="30" as="geometry" />
        </mxCell>
        <mxCell id="1V6wT3GAd-PUBo_Er2DN-62" value="4" style="text;html=1;align=center;verticalAlign=middle;resizable=0;points=[];autosize=1;strokeColor=none;fillColor=none;" vertex="1" parent="1">
          <mxGeometry x="300" y="170" width="30" height="30" as="geometry" />
        </mxCell>
        <mxCell id="1V6wT3GAd-PUBo_Er2DN-63" value="3" style="text;html=1;align=center;verticalAlign=middle;resizable=0;points=[];autosize=1;strokeColor=none;fillColor=none;" vertex="1" parent="1">
          <mxGeometry x="270" y="170" width="30" height="30" as="geometry" />
        </mxCell>
        <mxCell id="1V6wT3GAd-PUBo_Er2DN-64" value="5" style="text;html=1;align=center;verticalAlign=middle;resizable=0;points=[];autosize=1;strokeColor=none;fillColor=none;" vertex="1" parent="1">
          <mxGeometry x="325" y="170" width="30" height="30" as="geometry" />
        </mxCell>
        <mxCell id="1V6wT3GAd-PUBo_Er2DN-65" value="7" style="text;html=1;align=center;verticalAlign=middle;resizable=0;points=[];autosize=1;strokeColor=none;fillColor=none;" vertex="1" parent="1">
          <mxGeometry x="385" y="170" width="30" height="30" as="geometry" />
        </mxCell>
        <mxCell id="1V6wT3GAd-PUBo_Er2DN-66" value="6" style="text;html=1;align=center;verticalAlign=middle;resizable=0;points=[];autosize=1;strokeColor=none;fillColor=none;" vertex="1" parent="1">
          <mxGeometry x="355" y="170" width="30" height="30" as="geometry" />
        </mxCell>
        <mxCell id="1V6wT3GAd-PUBo_Er2DN-67" value="9" style="text;html=1;align=center;verticalAlign=middle;resizable=0;points=[];autosize=1;strokeColor=none;fillColor=none;" vertex="1" parent="1">
          <mxGeometry x="445" y="170" width="30" height="30" as="geometry" />
        </mxCell>
        <mxCell id="1V6wT3GAd-PUBo_Er2DN-68" value="8" style="text;html=1;align=center;verticalAlign=middle;resizable=0;points=[];autosize=1;strokeColor=none;fillColor=none;" vertex="1" parent="1">
          <mxGeometry x="415" y="170" width="30" height="30" as="geometry" />
        </mxCell>
        <mxCell id="1V6wT3GAd-PUBo_Er2DN-69" value="11" style="text;html=1;align=center;verticalAlign=middle;resizable=0;points=[];autosize=1;strokeColor=none;fillColor=none;" vertex="1" parent="1">
          <mxGeometry x="495" y="170" width="40" height="30" as="geometry" />
        </mxCell>
        <mxCell id="1V6wT3GAd-PUBo_Er2DN-70" value="10" style="text;html=1;align=center;verticalAlign=middle;resizable=0;points=[];autosize=1;strokeColor=none;fillColor=none;" vertex="1" parent="1">
          <mxGeometry x="465" y="170" width="40" height="30" as="geometry" />
        </mxCell>
        <mxCell id="1V6wT3GAd-PUBo_Er2DN-71" value="14" style="text;html=1;align=center;verticalAlign=middle;resizable=0;points=[];autosize=1;strokeColor=none;fillColor=none;" vertex="1" parent="1">
          <mxGeometry x="585" y="170" width="40" height="30" as="geometry" />
        </mxCell>
        <mxCell id="1V6wT3GAd-PUBo_Er2DN-72" value="13" style="text;html=1;align=center;verticalAlign=middle;resizable=0;points=[];autosize=1;strokeColor=none;fillColor=none;" vertex="1" parent="1">
          <mxGeometry x="555" y="170" width="40" height="30" as="geometry" />
        </mxCell>
        <mxCell id="1V6wT3GAd-PUBo_Er2DN-73" value="12" style="text;html=1;align=center;verticalAlign=middle;resizable=0;points=[];autosize=1;strokeColor=none;fillColor=none;" vertex="1" parent="1">
          <mxGeometry x="525" y="170" width="40" height="30" as="geometry" />
        </mxCell>
        <mxCell id="1V6wT3GAd-PUBo_Er2DN-74" value="16" style="text;html=1;align=center;verticalAlign=middle;resizable=0;points=[];autosize=1;strokeColor=none;fillColor=none;" vertex="1" parent="1">
          <mxGeometry x="645" y="170" width="40" height="30" as="geometry" />
        </mxCell>
        <mxCell id="1V6wT3GAd-PUBo_Er2DN-75" value="15" style="text;html=1;align=center;verticalAlign=middle;resizable=0;points=[];autosize=1;strokeColor=none;fillColor=none;" vertex="1" parent="1">
          <mxGeometry x="615" y="170" width="40" height="30" as="geometry" />
        </mxCell>
        <mxCell id="1V6wT3GAd-PUBo_Er2DN-76" value="18" style="text;html=1;align=center;verticalAlign=middle;resizable=0;points=[];autosize=1;strokeColor=none;fillColor=none;" vertex="1" parent="1">
          <mxGeometry x="705" y="170" width="40" height="30" as="geometry" />
        </mxCell>
        <mxCell id="1V6wT3GAd-PUBo_Er2DN-77" value="17" style="text;html=1;align=center;verticalAlign=middle;resizable=0;points=[];autosize=1;strokeColor=none;fillColor=none;" vertex="1" parent="1">
          <mxGeometry x="675" y="170" width="40" height="30" as="geometry" />
        </mxCell>
        <mxCell id="1V6wT3GAd-PUBo_Er2DN-78" value="20" style="text;html=1;align=center;verticalAlign=middle;resizable=0;points=[];autosize=1;strokeColor=none;fillColor=none;" vertex="1" parent="1">
          <mxGeometry x="765" y="170" width="40" height="30" as="geometry" />
        </mxCell>
        <mxCell id="1V6wT3GAd-PUBo_Er2DN-79" value="19" style="text;html=1;align=center;verticalAlign=middle;resizable=0;points=[];autosize=1;strokeColor=none;fillColor=none;" vertex="1" parent="1">
          <mxGeometry x="735" y="170" width="40" height="30" as="geometry" />
        </mxCell>
        <mxCell id="1V6wT3GAd-PUBo_Er2DN-80" value="22" style="text;html=1;align=center;verticalAlign=middle;resizable=0;points=[];autosize=1;strokeColor=none;fillColor=none;" vertex="1" parent="1">
          <mxGeometry x="815" y="170" width="40" height="30" as="geometry" />
        </mxCell>
        <mxCell id="1V6wT3GAd-PUBo_Er2DN-81" value="21" style="text;html=1;align=center;verticalAlign=middle;resizable=0;points=[];autosize=1;strokeColor=none;fillColor=none;" vertex="1" parent="1">
          <mxGeometry x="792" y="170" width="40" height="30" as="geometry" />
        </mxCell>
        <mxCell id="1V6wT3GAd-PUBo_Er2DN-82" value="23" style="text;html=1;align=center;verticalAlign=middle;resizable=0;points=[];autosize=1;strokeColor=none;fillColor=none;" vertex="1" parent="1">
          <mxGeometry x="845" y="170" width="40" height="30" as="geometry" />
        </mxCell>
        <mxCell id="1V6wT3GAd-PUBo_Er2DN-83" value="8" style="text;html=1;align=center;verticalAlign=middle;resizable=0;points=[];autosize=1;strokeColor=none;fillColor=none;" vertex="1" parent="1">
          <mxGeometry x="185" y="250" width="30" height="30" as="geometry" />
        </mxCell>
        <mxCell id="1V6wT3GAd-PUBo_Er2DN-84" value="8" style="text;html=1;align=center;verticalAlign=middle;resizable=0;points=[];autosize=1;strokeColor=none;fillColor=none;" vertex="1" parent="1">
          <mxGeometry x="240" y="250" width="30" height="30" as="geometry" />
        </mxCell>
        <mxCell id="1V6wT3GAd-PUBo_Er2DN-85" value="5" style="text;html=1;align=center;verticalAlign=middle;resizable=0;points=[];autosize=1;strokeColor=none;fillColor=none;" vertex="1" parent="1">
          <mxGeometry x="210" y="250" width="30" height="30" as="geometry" />
        </mxCell>
        <mxCell id="1V6wT3GAd-PUBo_Er2DN-86" value="7" style="text;html=1;align=center;verticalAlign=middle;resizable=0;points=[];autosize=1;strokeColor=none;fillColor=none;" vertex="1" parent="1">
          <mxGeometry x="300" y="250" width="30" height="30" as="geometry" />
        </mxCell>
        <mxCell id="1V6wT3GAd-PUBo_Er2DN-87" value="5" style="text;html=1;align=center;verticalAlign=middle;resizable=0;points=[];autosize=1;strokeColor=none;fillColor=none;" vertex="1" parent="1">
          <mxGeometry x="270" y="250" width="30" height="30" as="geometry" />
        </mxCell>
        <mxCell id="1V6wT3GAd-PUBo_Er2DN-88" value="5" style="text;html=1;align=center;verticalAlign=middle;resizable=0;points=[];autosize=1;strokeColor=none;fillColor=none;" vertex="1" parent="1">
          <mxGeometry x="325" y="250" width="30" height="30" as="geometry" />
        </mxCell>
        <mxCell id="1V6wT3GAd-PUBo_Er2DN-89" value="7" style="text;html=1;align=center;verticalAlign=middle;resizable=0;points=[];autosize=1;strokeColor=none;fillColor=none;" vertex="1" parent="1">
          <mxGeometry x="385" y="250" width="30" height="30" as="geometry" />
        </mxCell>
        <mxCell id="1V6wT3GAd-PUBo_Er2DN-90" value="8" style="text;html=1;align=center;verticalAlign=middle;resizable=0;points=[];autosize=1;strokeColor=none;fillColor=none;" vertex="1" parent="1">
          <mxGeometry x="355" y="250" width="30" height="30" as="geometry" />
        </mxCell>
        <mxCell id="1V6wT3GAd-PUBo_Er2DN-91" value="14" style="text;html=1;align=center;verticalAlign=middle;resizable=0;points=[];autosize=1;strokeColor=none;fillColor=none;" vertex="1" parent="1">
          <mxGeometry x="440" y="250" width="40" height="30" as="geometry" />
        </mxCell>
        <mxCell id="1V6wT3GAd-PUBo_Er2DN-92" value="8" style="text;html=1;align=center;verticalAlign=middle;resizable=0;points=[];autosize=1;strokeColor=none;fillColor=none;" vertex="1" parent="1">
          <mxGeometry x="415" y="250" width="30" height="30" as="geometry" />
        </mxCell>
        <mxCell id="1V6wT3GAd-PUBo_Er2DN-93" value="11" style="text;html=1;align=center;verticalAlign=middle;resizable=0;points=[];autosize=1;strokeColor=none;fillColor=none;" vertex="1" parent="1">
          <mxGeometry x="495" y="250" width="40" height="30" as="geometry" />
        </mxCell>
        <mxCell id="1V6wT3GAd-PUBo_Er2DN-94" value="15" style="text;html=1;align=center;verticalAlign=middle;resizable=0;points=[];autosize=1;strokeColor=none;fillColor=none;" vertex="1" parent="1">
          <mxGeometry x="465" y="250" width="40" height="30" as="geometry" />
        </mxCell>
        <mxCell id="1V6wT3GAd-PUBo_Er2DN-95" value="14" style="text;html=1;align=center;verticalAlign=middle;resizable=0;points=[];autosize=1;strokeColor=none;fillColor=none;" vertex="1" parent="1">
          <mxGeometry x="585" y="250" width="40" height="30" as="geometry" />
        </mxCell>
        <mxCell id="1V6wT3GAd-PUBo_Er2DN-96" value="13" style="text;html=1;align=center;verticalAlign=middle;resizable=0;points=[];autosize=1;strokeColor=none;fillColor=none;" vertex="1" parent="1">
          <mxGeometry x="555" y="250" width="40" height="30" as="geometry" />
        </mxCell>
        <mxCell id="1V6wT3GAd-PUBo_Er2DN-97" value="15" style="text;html=1;align=center;verticalAlign=middle;resizable=0;points=[];autosize=1;strokeColor=none;fillColor=none;" vertex="1" parent="1">
          <mxGeometry x="525" y="250" width="40" height="30" as="geometry" />
        </mxCell>
        <mxCell id="1V6wT3GAd-PUBo_Er2DN-98" value="19" style="text;html=1;align=center;verticalAlign=middle;resizable=0;points=[];autosize=1;strokeColor=none;fillColor=none;" vertex="1" parent="1">
          <mxGeometry x="645" y="250" width="40" height="30" as="geometry" />
        </mxCell>
        <mxCell id="1V6wT3GAd-PUBo_Er2DN-99" value="15" style="text;html=1;align=center;verticalAlign=middle;resizable=0;points=[];autosize=1;strokeColor=none;fillColor=none;" vertex="1" parent="1">
          <mxGeometry x="615" y="250" width="40" height="30" as="geometry" />
        </mxCell>
        <mxCell id="1V6wT3GAd-PUBo_Er2DN-100" value="23" style="text;html=1;align=center;verticalAlign=middle;resizable=0;points=[];autosize=1;strokeColor=none;fillColor=none;" vertex="1" parent="1">
          <mxGeometry x="705" y="250" width="40" height="30" as="geometry" />
        </mxCell>
        <mxCell id="1V6wT3GAd-PUBo_Er2DN-101" value="22" style="text;html=1;align=center;verticalAlign=middle;resizable=0;points=[];autosize=1;strokeColor=none;fillColor=none;" vertex="1" parent="1">
          <mxGeometry x="675" y="250" width="40" height="30" as="geometry" />
        </mxCell>
        <mxCell id="1V6wT3GAd-PUBo_Er2DN-102" value="20" style="text;html=1;align=center;verticalAlign=middle;resizable=0;points=[];autosize=1;strokeColor=none;fillColor=none;" vertex="1" parent="1">
          <mxGeometry x="765" y="250" width="40" height="30" as="geometry" />
        </mxCell>
        <mxCell id="1V6wT3GAd-PUBo_Er2DN-103" value="19" style="text;html=1;align=center;verticalAlign=middle;resizable=0;points=[];autosize=1;strokeColor=none;fillColor=none;" vertex="1" parent="1">
          <mxGeometry x="735" y="250" width="40" height="30" as="geometry" />
        </mxCell>
        <mxCell id="1V6wT3GAd-PUBo_Er2DN-104" value="22" style="text;html=1;align=center;verticalAlign=middle;resizable=0;points=[];autosize=1;strokeColor=none;fillColor=none;" vertex="1" parent="1">
          <mxGeometry x="815" y="250" width="40" height="30" as="geometry" />
        </mxCell>
        <mxCell id="1V6wT3GAd-PUBo_Er2DN-105" value="21" style="text;html=1;align=center;verticalAlign=middle;resizable=0;points=[];autosize=1;strokeColor=none;fillColor=none;" vertex="1" parent="1">
          <mxGeometry x="792" y="250" width="40" height="30" as="geometry" />
        </mxCell>
        <mxCell id="1V6wT3GAd-PUBo_Er2DN-106" value="23" style="text;html=1;align=center;verticalAlign=middle;resizable=0;points=[];autosize=1;strokeColor=none;fillColor=none;" vertex="1" parent="1">
          <mxGeometry x="845" y="250" width="40" height="30" as="geometry" />
        </mxCell>
        <mxCell id="1V6wT3GAd-PUBo_Er2DN-112" value="" style="whiteSpace=wrap;html=1;strokeColor=#FF0000;fillColor=none;" vertex="1" parent="1">
          <mxGeometry x="185" y="250" width="255" height="30" as="geometry" />
        </mxCell>
        <mxCell id="1V6wT3GAd-PUBo_Er2DN-107" value="" style="endArrow=none;html=1;rounded=0;strokeColor=#FF0000;" edge="1" parent="1">
          <mxGeometry width="50" height="50" relative="1" as="geometry">
            <mxPoint x="445" y="280" as="sourcePoint" />
            <mxPoint x="445" y="170" as="targetPoint" />
          </mxGeometry>
        </mxCell>
        <mxCell id="1V6wT3GAd-PUBo_Er2DN-108" value="" style="endArrow=none;html=1;rounded=0;strokeColor=#FF0000;" edge="1" parent="1">
          <mxGeometry width="50" height="50" relative="1" as="geometry">
            <mxPoint x="649" y="280" as="sourcePoint" />
            <mxPoint x="649" y="170" as="targetPoint" />
          </mxGeometry>
        </mxCell>
        <mxCell id="1V6wT3GAd-PUBo_Er2DN-109" value="" style="endArrow=none;html=1;rounded=0;strokeColor=#FF0000;" edge="1" parent="1">
          <mxGeometry width="50" height="50" relative="1" as="geometry">
            <mxPoint x="885" y="280" as="sourcePoint" />
            <mxPoint x="885" y="170" as="targetPoint" />
          </mxGeometry>
        </mxCell>
        <mxCell id="1V6wT3GAd-PUBo_Er2DN-114" value="" style="whiteSpace=wrap;html=1;strokeColor=#FF0000;fillColor=none;" vertex="1" parent="1">
          <mxGeometry x="455" y="250" width="190" height="30" as="geometry" />
        </mxCell>
        <mxCell id="1V6wT3GAd-PUBo_Er2DN-115" value="" style="whiteSpace=wrap;html=1;strokeColor=#FF0000;fillColor=none;" vertex="1" parent="1">
          <mxGeometry x="660" y="250" width="220" height="30" as="geometry" />
        </mxCell>
        <mxCell id="1V6wT3GAd-PUBo_Er2DN-122" value="" style="endArrow=classic;html=1;rounded=0;" edge="1" parent="1">
          <mxGeometry width="50" height="50" relative="1" as="geometry">
            <mxPoint x="200" y="360" as="sourcePoint" />
            <mxPoint x="200" y="290" as="targetPoint" />
          </mxGeometry>
        </mxCell>
        <mxCell id="1V6wT3GAd-PUBo_Er2DN-123" value="" style="endArrow=classic;html=1;rounded=0;" edge="1" parent="1">
          <mxGeometry width="50" height="50" relative="1" as="geometry">
            <mxPoint x="429.5" y="360" as="sourcePoint" />
            <mxPoint x="429.5" y="290" as="targetPoint" />
          </mxGeometry>
        </mxCell>
        <mxCell id="1V6wT3GAd-PUBo_Er2DN-124" value="" style="endArrow=classic;html=1;rounded=0;" edge="1" parent="1">
          <mxGeometry width="50" height="50" relative="1" as="geometry">
            <mxPoint x="484.5" y="360" as="sourcePoint" />
            <mxPoint x="484.5" y="290" as="targetPoint" />
          </mxGeometry>
        </mxCell>
        <mxCell id="1V6wT3GAd-PUBo_Er2DN-125" value="" style="endArrow=classic;html=1;rounded=0;" edge="1" parent="1">
          <mxGeometry width="50" height="50" relative="1" as="geometry">
            <mxPoint x="634.5" y="360" as="sourcePoint" />
            <mxPoint x="634.5" y="290" as="targetPoint" />
          </mxGeometry>
        </mxCell>
        <mxCell id="1V6wT3GAd-PUBo_Er2DN-126" value="" style="endArrow=classic;html=1;rounded=0;" edge="1" parent="1">
          <mxGeometry width="50" height="50" relative="1" as="geometry">
            <mxPoint x="724.5" y="360" as="sourcePoint" />
            <mxPoint x="724.5" y="290" as="targetPoint" />
          </mxGeometry>
        </mxCell>
        <mxCell id="1V6wT3GAd-PUBo_Er2DN-127" value="" style="endArrow=classic;html=1;rounded=0;" edge="1" parent="1">
          <mxGeometry width="50" height="50" relative="1" as="geometry">
            <mxPoint x="864.5" y="360" as="sourcePoint" />
            <mxPoint x="864.5" y="290" as="targetPoint" />
          </mxGeometry>
        </mxCell>
        <mxCell id="1V6wT3GAd-PUBo_Er2DN-128" value="更新最远边界为8" style="text;html=1;align=center;verticalAlign=middle;resizable=0;points=[];autosize=1;strokeColor=none;fillColor=none;" vertex="1" parent="1">
          <mxGeometry x="145" y="368" width="110" height="30" as="geometry" />
        </mxCell>
        <mxCell id="1V6wT3GAd-PUBo_Er2DN-129" value="right 找到&lt;div&gt;之前字符&lt;/div&gt;&lt;div&gt;最大出现位置&lt;/div&gt;&lt;div&gt;和下标相等&lt;/div&gt;" style="text;html=1;align=center;verticalAlign=middle;resizable=0;points=[];autosize=1;strokeColor=none;fillColor=none;" vertex="1" parent="1">
          <mxGeometry x="364" y="368" width="100" height="70" as="geometry" />
        </mxCell>
        <mxCell id="1V6wT3GAd-PUBo_Er2DN-130" value="更新最远&lt;div&gt;边界为15&lt;/div&gt;" style="text;html=1;align=center;verticalAlign=middle;resizable=0;points=[];autosize=1;strokeColor=none;fillColor=none;" vertex="1" parent="1">
          <mxGeometry x="455" y="363" width="70" height="40" as="geometry" />
        </mxCell>
        <mxCell id="1V6wT3GAd-PUBo_Er2DN-131" value="right 找到之前字符&lt;div&gt;最大出现位置和&lt;/div&gt;&lt;div&gt;下标相等&lt;/div&gt;" style="text;html=1;align=center;verticalAlign=middle;resizable=0;points=[];autosize=1;strokeColor=none;fillColor=none;" vertex="1" parent="1">
          <mxGeometry x="570" y="363" width="120" height="60" as="geometry" />
        </mxCell>
        <mxCell id="1V6wT3GAd-PUBo_Er2DN-132" value="更新最远&lt;div&gt;边界为23&lt;/div&gt;" style="text;html=1;align=center;verticalAlign=middle;resizable=0;points=[];autosize=1;strokeColor=none;fillColor=none;" vertex="1" parent="1">
          <mxGeometry x="695" y="363" width="70" height="40" as="geometry" />
        </mxCell>
        <mxCell id="1V6wT3GAd-PUBo_Er2DN-142" value="right 找到之前字符最大&lt;div&gt;出现位置和下标相等&lt;/div&gt;" style="text;html=1;align=center;verticalAlign=middle;resizable=0;points=[];autosize=1;strokeColor=none;fillColor=none;" vertex="1" parent="1">
          <mxGeometry x="785" y="363" width="150" height="40" as="geometry" />
        </mxCell>
      </root>
    </mxGraphModel>
  </diagram>
</mxfile>
